<?xml version="1.0" encoding="UTF-8"?>
<svg version="1.1" xmlns="http://www.w3.org/2000/svg" width="1702" height="630">
<path d="M0 0 C48.21925967 -1.02066598 94.85812859 14.60860554 132.21875 45.12109375 C132.77771973 45.57178223 133.33668945 46.0224707 133.91259766 46.48681641 C165.35423894 71.97165393 194.12638386 112.40979519 201.21875 153.12109375 C201.296875 155.625 201.296875 155.625 200.21875 158.12109375 C197.82448766 160.42446019 195.14520632 162.25099064 192.40625 164.12109375 C191.59873291 164.68650879 190.79121582 165.25192383 189.95922852 165.83447266 C187.39284478 167.61782909 184.80982196 169.37383126 182.21875 171.12109375 C181.42404297 171.65831055 180.62933594 172.19552734 179.81054688 172.74902344 C165.9374603 182.06479532 151.61253729 190.64042989 137.21875 199.12109375 C136.35233887 199.63494629 135.48592773 200.14879883 134.59326172 200.67822266 C117.86648038 210.57289185 100.56831463 219.3816975 83.21875 228.12109375 C81.67791748 228.89960693 81.67791748 228.89960693 80.10595703 229.69384766 C57.70794391 240.93448621 34.08738034 248.94629541 10.46875 257.18359375 C9.36656128 257.56911407 8.26437256 257.9546344 7.12878418 258.35183716 C3.95758369 259.45898231 0.78396273 260.55886009 -2.390625 261.65625 C-3.34900269 261.99120483 -4.30738037 262.32615967 -5.2947998 262.67126465 C-9.78012354 264.21227058 -14.04725671 265.55024142 -18.78125 266.12109375 C-19.11125 265.13109375 -19.44125 264.14109375 -19.78125 263.12109375 C-15.29757066 256.26370181 -9.6124575 250.22899283 -4.2265625 244.0703125 C-0.96559752 240.34100769 2.254765 236.57837677 5.46875 232.80859375 C8.89287246 228.79738356 12.35602824 224.83453066 15.90625 220.93359375 C18.91689479 217.62026295 21.78440178 214.23167446 24.59375 210.74609375 C28.27641385 206.19088237 32.14901302 201.88196819 36.13671875 197.59765625 C39.08777981 194.40820864 41.87853518 191.13762582 44.59375 187.74609375 C48.64670213 182.70532533 52.99491846 178.01321695 57.42578125 173.30859375 C60.62837495 169.88950771 63.67437608 166.41459003 66.59375 162.74609375 C71.02313236 157.2093658 75.84342263 152.08630882 80.72802734 146.95361328 C84.44602172 143.04247634 88.06411362 139.06787882 91.59814453 134.98950195 C93.0228317 133.34696943 94.46477685 131.72233689 95.9140625 130.1015625 C103.54667563 121.32773872 109.26839141 113.14120168 108.703125 101.05078125 C107.65035959 94.68324853 104.90015569 89.91980682 100.53125 85.24609375 C90.78026097 78.9907423 80.92455898 77.37899155 69.5065918 79.66381836 C62.05570216 81.428038 54.94298861 83.87165959 47.78125 86.55859375 C46.54407227 87.01741943 45.30689453 87.47624512 44.03222656 87.94897461 C39.42324272 89.66107686 34.8210329 91.39107644 30.21875 93.12109375 C29.23549744 93.49028931 28.25224487 93.85948486 27.23919678 94.23986816 C3.891202 103.00676857 -19.44010926 111.81447734 -42.7109375 120.78442383 C-47.31618724 122.55907008 -51.9254257 124.32285595 -56.5378418 126.07878113 C-59.58858151 127.24143878 -62.63659491 128.41112253 -65.68408203 129.58227539 C-67.19662288 130.16173374 -68.71034577 130.73811391 -70.22509766 131.31176758 C-78.19153406 134.33158721 -85.68889639 137.31164786 -92.78125 142.12109375 C-93.44125 142.12109375 -94.10125 142.12109375 -94.78125 142.12109375 C-99.31966561 150.49970718 -101.62878163 158.45103086 -99.01953125 167.87109375 C-96.32712484 175.02246571 -93.21940395 180.09806923 -86.11328125 183.328125 C-73.65468433 187.56446533 -62.87446819 182.28769155 -51.28125 177.74609375 C-49.00922015 176.86561295 -46.73707851 175.98542061 -44.46484375 175.10546875 C-42.5845252 174.37510324 -40.7042075 173.64473555 -38.82391357 172.91430664 C-32.76697307 170.56225839 -26.70752077 168.21687509 -20.64355469 165.88299561 C-19.11333593 165.2928786 -17.58387079 164.70080359 -16.05517578 164.10675049 C-13.90440669 163.27101134 -11.75133333 162.44149231 -9.59765625 161.61328125 C-8.95192154 161.36064514 -8.30618683 161.10800903 -7.6408844 160.84771729 C-4.85136404 159.78162621 -2.79894881 159.12109375 0.21875 159.12109375 C-0.28229961 163.55225125 -1.71701777 165.56482487 -4.78125 168.74609375 C-8.09139377 172.27621543 -11.24745747 175.85021782 -14.28125 179.62109375 C-17.89274134 184.08529832 -21.66785694 188.35111489 -25.53515625 192.59375 C-27.84312598 195.19071768 -30.03680863 197.85513388 -32.21875 200.55859375 C-36.08066675 205.33393777 -40.15799224 209.8577706 -44.31640625 214.375 C-46.70832297 217.03984541 -48.97379884 219.769412 -51.21875 222.55859375 C-54.39036478 226.49384864 -57.70338919 230.24572465 -61.15625 233.93359375 C-67.12205623 240.34490527 -72.50242803 247.13905391 -77.78125 254.12109375 C-78.21856445 254.69085938 -78.65587891 255.260625 -79.10644531 255.84765625 C-88.28879303 267.86219934 -98.07067902 281.29439245 -96.78125 297.12109375 C-95.31980986 305.48377902 -91.6734493 312.38233431 -84.98828125 317.73046875 C-66.11038623 329.62521322 -38.39675308 321.98375285 -18.37109375 317.49609375 C42.14548974 303.31770479 101.35991813 278.631128 154.60595703 246.68164062 C156.96516399 245.27255346 159.33506202 243.88567965 161.71484375 242.51171875 C175.9710191 234.27134703 189.9074863 225.45886335 203.52148438 216.19628906 C205.21875 215.12109375 205.21875 215.12109375 206.21875 215.12109375 C208.29162048 257.26946009 185.81756423 303.6756284 158.41015625 334.64453125 C123.18277525 373.41172339 75.26632649 401.06922532 22.00949097 404.25317383 C16.45519429 404.48099925 10.90203085 404.50950613 5.34375 404.49609375 C4.0648288 404.49527802 4.0648288 404.49527802 2.7600708 404.4944458 C-11.71966731 404.45216969 -25.63678371 403.41867035 -39.78125 400.12109375 C-40.66796387 399.91742187 -41.55467773 399.71375 -42.46826172 399.50390625 C-76.62392256 391.35633834 -108.20388345 374.20992765 -133.25292969 349.61425781 C-134.81979961 348.0834309 -136.41175004 346.58234911 -138.0078125 345.08203125 C-150.33169537 333.33177981 -160.25955336 319.82877575 -168.78125 305.12109375 C-169.43480469 304.06148438 -170.08835937 303.001875 -170.76171875 301.91015625 C-186.31191384 276.10344951 -195.72623319 243.35813339 -196.01953125 213.21484375 C-196.02937042 212.38097641 -196.03920959 211.54710907 -196.04934692 210.68797302 C-196.21951467 192.5182958 -196.21450632 174.86044321 -191.78125 157.12109375 C-191.53987305 156.13979492 -191.29849609 155.15849609 -191.04980469 154.14746094 C-180.9043902 114.08902562 -158.52162468 74.16868465 -125.78125 48.12109375 C-124.86472656 47.37859375 -123.94820313 46.63609375 -123.00390625 45.87109375 C-103.21197413 30.08705922 -81.67805362 18.37916844 -57.78125 10.12109375 C-57.05470215 9.8684375 -56.3281543 9.61578125 -55.57958984 9.35546875 C-37.78628195 3.30532392 -18.72979234 0.59981773 0 0 Z " fill="#FF4D4D" transform="translate(293.78125,112.87890625)"/>
<path d="M0 0 C20.59798847 18.54135368 31.2533335 42.84205995 33.54296875 70.2890625 C34.0694517 80.72000591 33.33470485 91.00946704 31.54296875 101.2890625 C30.54296875 102.2890625 30.54296875 102.2890625 28.32719326 102.41211033 C27.33995297 102.41118854 26.35271269 102.41026674 25.33555603 102.40931702 C24.20668472 102.41069168 23.07781342 102.41206635 21.91473389 102.41348267 C20.6653302 102.40988739 19.41592651 102.40629211 18.12866211 102.40258789 C16.82153763 102.40273392 15.51441315 102.40287994 14.16767883 102.4030304 C10.57279776 102.40331836 6.97794978 102.39742178 3.38307643 102.39045644 C-0.36989377 102.38422276 -4.12286465 102.38361909 -7.87583923 102.38243103 C-14.98733951 102.37931776 -22.0988245 102.37110442 -29.21031803 102.36108154 C-37.30450191 102.34992028 -45.39868651 102.34440992 -53.49287617 102.33938611 C-70.1476035 102.32892181 -86.80231543 102.31132244 -103.45703125 102.2890625 C-103.02390625 102.98773438 -102.59078125 103.68640625 -102.14453125 104.40625 C-101.58765625 105.31632813 -101.03078125 106.22640625 -100.45703125 107.1640625 C-99.90015625 108.06898438 -99.34328125 108.97390625 -98.76953125 109.90625 C-97.45703125 112.2890625 -97.45703125 112.2890625 -97.45703125 114.2890625 C-96.59851562 114.69318359 -96.59851562 114.69318359 -95.72265625 115.10546875 C-93.39702732 116.32040938 -91.34849318 117.71290326 -89.20703125 119.2265625 C-76.64542463 127.68347336 -60.14932995 128.15647994 -45.54296875 125.60546875 C-37.4214012 123.26979121 -29.29440629 119.55401596 -23.45703125 113.2890625 C-19.01388334 114.62861734 -15.22253294 116.39172842 -11.203125 118.703125 C-10.62095718 119.03645844 -10.03878937 119.36979187 -9.4389801 119.71322632 C-8.20973367 120.41842381 -6.98196571 121.12620412 -5.75561523 121.83642578 C-3.92687157 122.89533625 -2.09383033 123.94643224 -0.25976562 124.99609375 C7.7712088 129.60758707 15.68296666 134.39185982 23.54296875 139.2890625 C21.76765993 143.87699722 19.88811755 146.69302754 16.54296875 150.2890625 C15.88296875 150.2890625 15.22296875 150.2890625 14.54296875 150.2890625 C14.54296875 150.9490625 14.54296875 151.6090625 14.54296875 152.2890625 C-1.08813731 168.83707701 -24.65866126 178.24540051 -47.14208984 179.49365234 C-51.14425925 179.59263883 -55.14158105 179.62303156 -59.14453125 179.6015625 C-59.8497995 179.59973969 -60.55506775 179.59791687 -61.28170776 179.59603882 C-86.90211966 179.484581 -111.82943361 173.60944253 -131.45703125 156.2890625 C-132.276875 155.61230469 -133.09671875 154.93554688 -133.94140625 154.23828125 C-153.78890869 137.38023182 -163.88474753 113.69510429 -166.06079102 88.09814453 C-167.97337984 60.0039394 -161.21371088 32.90155237 -142.45703125 11.2890625 C-141.791875 10.46792969 -141.12671875 9.64679688 -140.44140625 8.80078125 C-124.90178267 -9.70288164 -101.87755211 -19.40753803 -78.32421875 -22.3984375 C-49.25372397 -24.74756839 -22.83812308 -18.80786607 0 0 Z M-97.20703125 41.9765625 C-100.53578115 45.98037357 -105.45703125 52.87688485 -105.45703125 58.2890625 C-79.05703125 58.2890625 -52.65703125 58.2890625 -25.45703125 58.2890625 C-27.04913014 48.73646915 -31.62192732 42.16596528 -39.01953125 35.98046875 C-56.44362737 23.88970974 -82.82943645 26.855299 -97.20703125 41.9765625 Z " fill="#FF4D4D" transform="translate(1432.45703125,231.7109375)"/>
<path d="M0 0 C21.4106384 19.36266429 31.2728978 45.39707457 32.8828125 73.73828125 C33.06096425 82.679272 32.10092001 91.61397842 30.6953125 100.4375 C29.6953125 101.4375 29.6953125 101.4375 27.47953701 101.56054783 C26.49229672 101.55962604 25.50505644 101.55870424 24.48789978 101.55775452 C23.35902847 101.55912918 22.23015717 101.56050385 21.06707764 101.56192017 C19.81767395 101.55832489 18.56827026 101.55472961 17.28100586 101.55102539 C15.97388138 101.55117142 14.6667569 101.55131744 13.32002258 101.5514679 C9.72514151 101.55175586 6.13029353 101.54585928 2.53542018 101.53889394 C-1.21755002 101.53266026 -4.9705209 101.53205659 -8.72349548 101.53086853 C-15.83499576 101.52775526 -22.94648075 101.51954192 -30.05797428 101.50951904 C-38.15215816 101.49835778 -46.24634276 101.49284742 -54.34053242 101.48782361 C-70.99525975 101.47735931 -87.64997168 101.45975994 -104.3046875 101.4375 C-103.8715625 102.13617188 -103.4384375 102.83484375 -102.9921875 103.5546875 C-102.4353125 104.46476563 -101.8784375 105.37484375 -101.3046875 106.3125 C-100.7478125 107.21742188 -100.1909375 108.12234375 -99.6171875 109.0546875 C-98.3046875 111.4375 -98.3046875 111.4375 -98.3046875 113.4375 C-97.44617188 113.84162109 -97.44617188 113.84162109 -96.5703125 114.25390625 C-94.24468357 115.46884688 -92.19614943 116.86134076 -90.0546875 118.375 C-77.49308088 126.83191086 -60.9969862 127.30491744 -46.390625 124.75390625 C-38.26905745 122.41822871 -30.14206254 118.70245346 -24.3046875 112.4375 C-19.86153959 113.77705484 -16.07018919 115.54016592 -12.05078125 117.8515625 C-11.46861343 118.18489594 -10.88644562 118.51822937 -10.28663635 118.86166382 C-9.05738992 119.56686131 -7.82962196 120.27464162 -6.60327148 120.98486328 C-4.77452782 122.04377375 -2.94148658 123.09486974 -1.10742188 124.14453125 C6.92355255 128.75602457 14.83531041 133.54029732 22.6953125 138.4375 C19.00144517 146.07482029 14.17236782 151.12562924 7.6953125 156.4375 C6.95410156 157.08847656 6.21289062 157.73945313 5.44921875 158.41015625 C-12.90818036 174.05463923 -36.4721251 178.87614536 -59.9921875 178.75 C-60.69745575 178.74817719 -61.402724 178.74635437 -62.12936401 178.74447632 C-92.4267393 178.61267207 -118.401538 169.37042517 -140.6171875 148.5625 C-159.36848258 128.84960004 -167.6100872 102.51636382 -167.30078125 75.73046875 C-166.84396261 60.96420003 -164.31687549 47.00530334 -158.3046875 33.4375 C-157.92441406 32.56609375 -157.54414062 31.6946875 -157.15234375 30.796875 C-146.65600265 8.31986175 -127.04916218 -8.38226628 -104.3046875 -17.5625 C-68.72534338 -30.29559526 -28.89072988 -24.36369243 0 0 Z M-95.3046875 38.4375 C-95.84609375 38.95054687 -96.3875 39.46359375 -96.9453125 39.9921875 C-100.8471227 44.11076493 -106.3046875 51.56696354 -106.3046875 57.4375 C-79.9046875 57.4375 -53.5046875 57.4375 -26.3046875 57.4375 C-27.89678639 47.88490665 -32.46958357 41.31440278 -39.8671875 35.12890625 C-55.55571542 24.24247582 -81.37594402 25.21158303 -95.3046875 38.4375 Z " fill="#FF4D4D" transform="translate(913.3046875,232.5625)"/>
<path d="M0 0 C19.14 0 38.28 0 58 0 C58.03738281 8.09015625 58.07476563 16.1803125 58.11328125 24.515625 C58.1435751 29.65627086 58.17473237 34.7968827 58.20898438 39.9375 C58.26320866 48.08787323 58.31476183 56.23817606 58.34643555 64.38867188 C58.37200144 70.96346934 58.41299453 77.53806815 58.46318626 84.1127243 C58.47980619 86.61475536 58.49135068 89.1168257 58.49761391 91.61890411 C58.50730791 95.13712621 58.53543127 98.65477291 58.56762695 102.17285156 C58.56619186 103.19569244 58.56475677 104.21853333 58.5632782 105.27236938 C58.70063173 115.96112165 60.42161126 126.9599027 68 135 C75.8494604 141.20748144 84.99072581 144.1062882 95 143 C103.98530076 141.53527289 111.78377833 139.02063238 117.78125 131.87890625 C127.04159746 118.05647585 125.47031736 100.44260646 125.51171875 84.5703125 C125.52859001 82.12408562 125.54674349 79.67786728 125.56611633 77.23165894 C125.61335654 70.83675811 125.64333345 64.44189193 125.66955566 58.046875 C125.70476947 50.35062272 125.76170749 42.65450339 125.81494904 34.95835876 C125.89315777 23.30559006 125.94399457 11.65299174 126 0 C145.14 0 164.28 0 184 0 C184 63.36 184 126.72 184 192 C164.86 192 145.72 192 126 192 C125.505 184.575 125.505 184.575 125 177 C123.9275 178.175625 122.855 179.35125 121.75 180.5625 C109.29198303 193.02051697 93.31221445 197.15251991 76.19384766 197.38061523 C54.19332494 197.34474312 36.28965824 192.86751771 20 177 C4.42584184 159.65378217 -0.18311056 139.03972753 -0.11352539 116.25 C-0.11367142 114.99062119 -0.11381744 113.73124237 -0.1139679 112.43370056 C-0.11425324 109.00245104 -0.10839914 105.57123692 -0.10139394 102.13999557 C-0.09511652 98.54588758 -0.09455314 94.95177865 -0.09336853 91.35766602 C-0.09026811 84.56160054 -0.08207218 77.76555127 -0.07201904 70.96949291 C-0.05872078 61.77898288 -0.05334758 52.58846837 -0.04751682 43.39795113 C-0.03813136 28.93195529 -0.01820385 14.46599365 0 0 Z " fill="#FF4D4D" transform="translate(967,214)"/>
<path d="M0 0 C1.6025371 0.00138269 1.6025371 0.00138269 3.23744869 0.00279331 C4.45887569 0.00141865 5.6803027 0.00004398 6.93874264 -0.00137234 C8.3046639 0.00216727 9.67058492 0.00580208 11.0365057 0.00952244 C12.46520644 0.00980431 13.89390733 0.00964659 15.32260799 0.00907993 C19.21293315 0.00879194 23.10322774 0.01468896 26.99354577 0.02165389 C31.05481548 0.02788713 35.11608582 0.0284912 39.17735958 0.0296793 C46.87322276 0.0327927 54.56907181 0.04100622 62.26492876 0.05102879 C71.02415457 0.06218964 79.78338105 0.0677003 88.5426122 0.07272422 C106.56589397 0.08318882 124.58916257 0.10078844 142.61243343 0.12304783 C142.86227464 5.72371889 143.04228163 11.32105559 143.16174984 16.92602634 C143.21160999 18.82634144 143.27953065 20.72628152 143.36682796 22.62524509 C144.18492386 40.89765762 144.18492386 40.89765762 137.74256039 48.72387791 C136.06430746 50.55328104 134.35857699 52.35832933 132.61243343 54.12304783 C131.67934267 55.33302084 130.76925771 56.56193063 129.90540218 57.82226658 C128.37243235 59.99800299 126.83629207 62.1712388 125.29602718 64.34179783 C124.86403011 64.95152439 124.43203304 65.56125095 123.98694515 66.18945408 C116.90107825 76.1574942 109.69268644 86.03712486 102.42493343 95.87304783 C96.73942239 103.56799266 91.16041847 111.32777771 85.61243343 119.12304783 C81.32243343 125.06304783 77.03243343 131.00304783 72.61243343 137.12304783 C109.24243343 137.61804783 109.24243343 137.61804783 146.61243343 138.12304783 C146.61243343 155.94304783 146.61243343 173.76304783 146.61243343 192.12304783 C96.12243343 192.12304783 45.63243343 192.12304783 -6.38756657 192.12304783 C-6.38756657 147.89719556 -6.38756657 147.89719556 2.90930843 137.84570408 C3.5274139 137.2412949 4.14551937 136.63688572 4.78235531 136.01416111 C7.96646371 132.72385912 10.44805961 128.93984613 13.04993343 125.18554783 C14.12814921 123.68410259 15.21020303 122.18540628 16.29602718 120.68945408 C16.83856136 119.9406699 17.38109554 119.19188572 17.94007015 118.42041111 C21.3959508 113.67298966 24.89048653 108.95402817 28.37952328 104.23095798 C35.12014402 95.09699617 41.75020568 85.88391098 48.37805843 76.6679697 C49.56822037 75.01338588 50.7588876 73.35916539 51.95007992 71.70532322 C53.06795519 70.15327247 54.18472448 68.60042429 55.30017757 67.04663181 C55.80669857 66.34352879 56.31321957 65.64042576 56.83508968 64.91601658 C57.27602962 64.30266453 57.71696957 63.68931248 58.17127132 63.057374 C59.92821195 60.69921025 61.77160255 58.41608228 63.61243343 56.12304783 C62.78780102 56.11274036 61.9631686 56.1024329 61.11354733 56.09181309 C53.35837659 55.99400903 45.6032889 55.89151949 37.84825134 55.78370857 C33.86090127 55.7284431 29.87354392 55.67501746 25.88611507 55.62573338 C22.04111743 55.57814307 18.19621162 55.52580247 14.35132313 55.47010708 C12.88127002 55.44965926 11.4111917 55.43095027 9.9410944 55.41397381 C7.88882067 55.38998319 5.83672197 55.35992193 3.78455257 55.32837009 C2.61429028 55.31282581 1.44402798 55.29728153 0.23830318 55.28126621 C-2.38756657 55.12304783 -2.38756657 55.12304783 -3.38756657 54.12304783 C-3.48625166 52.47113387 -3.51555493 50.81501566 -3.5169611 49.1601572 C-3.52168934 47.57346226 -3.52168934 47.57346226 -3.5265131 45.95471287 C-3.52347675 44.22819492 -3.52347675 44.22819492 -3.52037907 42.46679783 C-3.52133579 41.29419407 -3.52229252 40.12159031 -3.52327824 38.9134531 C-3.52396027 36.42846721 -3.52210441 33.94347954 -3.51793766 31.45849705 C-3.51258976 27.63960895 -3.51788192 23.82083848 -3.52428532 20.00195408 C-3.52362454 17.59440173 -3.52234339 15.18684946 -3.52037907 12.77929783 C-3.5224033 11.62828587 -3.52442753 10.4772739 -3.5265131 9.29138279 C-3.52336094 8.23358616 -3.52020878 7.17578953 -3.5169611 6.08593845 C-3.5161655 5.14963596 -3.51536991 4.21333347 -3.51455021 3.24865818 C-3.33306206 0.21068352 -3.04939988 0.15715668 0 0 Z " fill="#FF4D4D" transform="translate(583.3875665664673,213.87695217132568)"/>
<path d="M0 0 C19.47 0 38.94 0 59 0 C59 92.07 59 184.14 59 279 C39.53 279 20.06 279 0 279 C0 186.93 0 94.86 0 0 Z " fill="#FF4D4D" transform="translate(1184,127)"/>
<path d="M0 0 C0 21.45 0 42.9 0 65 C-3.63 65 -7.26 65 -11 65 C-23.64733508 65.89103202 -36.28338534 69.47868318 -46 78 C-53.84457382 87.25522087 -56.1271024 97.4598856 -56.20532227 109.28833008 C-56.21522186 110.21564941 -56.22512146 111.14296875 -56.23532104 112.09838867 C-56.26684162 115.15541046 -56.29165612 118.21244777 -56.31640625 121.26953125 C-56.33698393 123.3923126 -56.35798062 125.51508993 -56.37937927 127.63786316 C-56.43451585 133.21911354 -56.48396221 138.80040039 -56.53222656 144.38171387 C-56.591346 151.08151987 -56.65752763 157.78125939 -56.72252655 164.48101044 C-56.82043018 174.65396627 -56.90935874 184.82696519 -57 195 C-76.14 195 -95.28 195 -115 195 C-115 131.64 -115 68.28 -115 3 C-95.86 3 -76.72 3 -57 3 C-56.67 12.24 -56.34 21.48 -56 31 C-53.525 26.545 -53.525 26.545 -51 22 C-42.79507463 10.02630508 -29.03103266 4.19167986 -15.48046875 0.515625 C-10.3731936 -0.24100836 -5.16301787 0 0 0 Z " fill="#FF4D4D" transform="translate(1605,211)"/>
</svg>
